<?xml version="1.0" encoding="utf-8"?>
<!-- Generator: Adobe Illustrator 28.3.0, SVG Export Plug-In . SVG Version: 6.00 Build 0)  -->
<svg version="1.1" xmlns="http://www.w3.org/2000/svg" xmlns:xlink="http://www.w3.org/1999/xlink" x="0px" y="0px"
	 viewBox="0 0 700 601.7" style="enable-background:new 0 0 700 601.7;" xml:space="preserve">
<style type="text/css">
	.st0{display:none;}
	.st1{fill:#00FF00;}
	.st2{fill:#2D2E83;stroke:#1D1D1B;stroke-miterlimit:10;}
	.st3{fill:#36A9E1;}
</style>
<g id="Lager_1" class="st0">
	
		<image style="display:inline;overflow:visible;" width="840" height="562" xlink:href="track.png2.png"  transform="matrix(0.8333 0 0 1.0706 0 0)">
	</image>
</g>
<g id="Lager_3">
	<rect x="0" y="0" class="st1" width="700" height="601.7"/>
</g>
<g id="Lager_2">
	<path class="st2" d="M655.1,554.5c-23,31-77.7,24.4-186,9.9c-83.5-11.2-125.8-17.3-154.5-45.5c-29.2-28.6-50.9-75.2-44.6-121.5
		c4.7-34.6,23.9-61,33.1-73.5c29-39.8,38.4-34.5,46.9-61.2c11.4-35.4-7.6-66-40.3-75.2c-36.1-10.2-42,21.3-71.1,55.4
		c-14.1,16.5-14.2,66-34.7,121.5c-30.2,81.8-72.7,71.3-95,70.2C56,432.2,21.7,369,17.9,362C-5.3,318.1,5.4,260.8,27,146.3
		c1-5.5,5-25.8,15.7-50.4c9.4-21.5,16.5-37.8,33.1-50.4c19.7-15,42.5-16.9,56.2-16.5c-0.8,18.2-1.7,36.4-2.5,54.5
		c-3.1,3.2-6.4,7-9.8,11.5c-25.4,33.5-53.5,100.8-37.3,190.2c8.1,44.7-4.6,68.1,8.3,65.3c13.7-3-3.6-18.6,21.5-92.6
		c7.5-22.1,22.6-65,62-103.3c15.3-14.9,52.7-50.3,111.6-58.7c22-3.1,65-9.3,105,18.2c4.8,3.3,43.9,31.1,52.1,81.8
		c5.9,36.5-7.4,65.5-15.7,83.5c-23.6,51.4-35.9,54-49.6,95c-1.2,3.7-17,49,19.8,92.6c32.2,38.1,68.5,35.3,80.2,34.7
		c34.5-1.8,86.8-8.8,94.2-42.1c9.6-43.4-71.5-66.2-70.2-133.1c0.3-14.1,4.6-52.1,27.3-85.1c7.4-10.9,16.5-20.7,22.8-39.7
		c2.4-7.4,7-25,4.5-47.9c0,0-3.9-24.2-21.7-47.2c-25.4-32.8-181-44.6-389.9-23.9c0.6-17.4,1.1-34.7,1.7-52.1
		C395.4-7,589,15.1,617.9,78.5c13.6,29.8,15.7,59.5,15.7,59.5c1.7,24.5-1.4,40.4-21.5,116.5c-7.7,29.2-11.5,43.7-12.4,52.1
		c-1.5,15-7.7,74.5,27.3,123.1c15.2,21.1,22.6,18.7,31.4,37.2C670.7,492.8,672.2,531.5,655.1,554.5z"/>
	<rect x="122.1" y="30.2" class="st3" width="27.3" height="53.7"/>
</g>
</svg>
